<svg id="clothes-laundry-fashion-svgrepo-com" xmlns="http://www.w3.org/2000/svg" width="35.637" height="30.053" viewBox="0 0 35.637 30.053">
  <path id="Path_39" data-name="Path 39" d="M9.634,41.053H35.8L33.9,25.707h6.641L37.776,11H26.532l-.066.575a3.439,3.439,0,0,1-6.838,0L19.563,11H7.662L4.9,25.451h6.641ZM6.478,24.172l2.3-11.893h9.6a4.759,4.759,0,0,0,4.668,3.709,4.815,4.815,0,0,0,4.668-3.709h9.008l2.3,12.149H33.831l-.592-4.987-1.315.128,2.367,20.206H11.146l2.433-20.142L12.264,19.5l-.592,4.732H6.478Z" transform="translate(-4.9 -11)" fill="#fff"/>
</svg>
